<svg width="105" height="104" viewBox="0 0 105 104" fill="none" xmlns="http://www.w3.org/2000/svg">
<mask id="mask0_31_45" style="mask-type:luminance" maskUnits="userSpaceOnUse" x="0" y="0" width="105" height="104">
<path d="M0 0H105V104H0V0Z" fill="white"/>
</mask>
<g mask="url(#mask0_31_45)">
<path fill-rule="evenodd" clip-rule="evenodd" d="M105 52C105 80.7169 81.4938 104 52.5 104C23.5062 104 0 80.7169 0 52C0 23.2804 23.5062 0 52.4986 0C81.4951 0 105 23.2804 105 52Z" fill="#89B753"/>
</g>
<path d="M42.8519 57.7011H62.3128M42.8519 71.6533H63.2295M47.1567 37.0735C47.1567 37.0735 47.2327 31.2601 50.6738 29.5989M50.0899 23.8951H55.8748M52.7189 18.1685H54.6716C54.6716 18.1685 56.4465 18.3797 56.4478 19.7856V21.5817H52.8954H53.1765H49.6241V19.7869C49.6241 18.3797 51.3989 18.1685 51.3989 18.1685H53.3544M53.0393 26.2619H50.6738C50.6738 26.2619 48.7591 26.9595 46.9258 28.9801C45.0953 31.0021 42.8601 31.236 42.8519 37.5345C42.8438 43.8344 43.664 43.5551 44.7314 44.8087C45.8014 46.0649 46.0825 47.1808 45.519 48.437C44.9554 49.6906 42.8506 50.3575 42.8506 53.5956V82.0479C42.8506 82.0479 43.1942 86.9285 47.947 83.5808C47.947 83.5808 48.7754 82.3112 49.6499 83.8588C49.6499 83.8588 52.9769 87.6248 55.0953 84.7528C57.2137 81.8795 58.1521 83.5808 58.1521 83.5808C62.9049 86.9285 63.2458 82.0479 63.2458 82.0479V53.5956C63.2458 50.3575 61.1436 49.6906 60.5814 48.437C60.0179 47.1808 60.299 46.0649 61.3663 44.8087C62.4364 43.5551 63.2539 43.8331 63.2458 37.5345C63.2376 31.236 61.0038 31.0021 59.1719 28.9815C57.3414 26.9595 55.4239 26.2619 55.4239 26.2619H53.0393Z" stroke="#FEFEFE" stroke-width="1.5" stroke-linecap="round" stroke-linejoin="round"/>
<path fill-rule="evenodd" clip-rule="evenodd" d="M49.6498 72.1611C49.6498 78.3286 44.6036 83.3268 38.3787 83.3268C32.1512 83.3268 27.105 78.3286 27.105 72.1611C27.105 65.9948 32.1512 60.9953 38.3774 60.9953C44.6036 60.9953 49.6498 65.9948 49.6498 72.1611Z" fill="#FEFEFE"/>
<path d="M33.748 77.3088L43.0066 68.137M33.748 68.1383L43.0066 77.3088" stroke="#89B753" stroke-width="1.5" stroke-linecap="round" stroke-linejoin="round"/>
</svg>
