<svg width="48" height="47" viewBox="0 0 48 47" fill="none" xmlns="http://www.w3.org/2000/svg">
<ellipse cx="24" cy="23.5" rx="24" ry="23.5" fill="#89B753"/>
<path d="M22.1668 4.7085H27.8335M17.2085 18.1668H17.9168L19.3717 18.4091C23.0983 19.0301 26.902 19.0301 30.6286 18.4091L32.0835 18.1668H32.7918M17.2085 28.0835H17.9168L19.3717 27.8412C23.0983 27.2202 26.902 27.2202 30.6286 27.8412L32.0835 28.0835H32.7918M27.1252 8.9585H22.8752C21.1724 9.80986 19.7404 11.1186 18.7395 12.7379C17.7387 14.3573 17.2085 16.2234 17.2085 18.1272V34.4585C17.2085 35.2099 17.507 35.9306 18.0384 36.462C18.5697 36.9933 19.2904 37.2918 20.0418 37.2918H29.9585C30.7099 37.2918 31.4306 36.9933 31.962 36.462C32.4933 35.9306 32.7918 35.2099 32.7918 34.4585V18.1272C32.7918 16.2234 32.2617 14.3573 31.2608 12.7379C30.2599 11.1186 28.8279 9.80986 27.1252 8.9585Z" stroke="white"/>
</svg>
