<svg width="39" height="39" viewBox="0 0 39 39" fill="none" xmlns="http://www.w3.org/2000/svg">
<path d="M39 19.5C39 30.2696 30.2696 39 19.5 39C8.73045 39 0 30.2696 0 19.5C0 8.73045 8.73045 0 19.5 0C30.2696 0 39 8.73045 39 19.5Z" fill="#1DBAA4"/>
<path fill-rule="evenodd" clip-rule="evenodd" d="M17.5215 12.0778C18.3214 11.2778 19.4062 10.8283 20.5375 10.8281H22.7312C22.8929 10.8281 23.0479 10.8923 23.1621 11.0066C23.2764 11.1209 23.3406 11.2759 23.3406 11.4375V14.3625C23.3406 14.5241 23.2764 14.6791 23.1621 14.7934C23.0479 14.9077 22.8929 14.9719 22.7312 14.9719H20.5375C20.5215 14.9719 20.5056 14.975 20.4909 14.9812C20.4761 14.9873 20.4626 14.9963 20.4513 15.0076C20.44 15.0189 20.431 15.0323 20.4249 15.0471C20.4188 15.0619 20.4156 15.0777 20.4156 15.0938V16.6781H22.7312C22.8239 16.6781 22.9153 16.6991 22.9986 16.7397C23.0819 16.7803 23.1548 16.8394 23.2118 16.9124C23.2689 16.9854 23.3085 17.0704 23.3277 17.1611C23.3469 17.2517 23.3452 17.3455 23.3228 17.4354L22.5915 20.3604C22.5585 20.4923 22.4824 20.6093 22.3752 20.6929C22.268 20.7766 22.1359 20.822 22 20.8219H20.4156V26.0625C20.4156 26.2241 20.3514 26.3791 20.2371 26.4934C20.1229 26.6077 19.9679 26.6719 19.8063 26.6719H16.8812C16.7196 26.6719 16.5646 26.6077 16.4504 26.4934C16.3361 26.3791 16.2719 26.2241 16.2719 26.0625V20.8219H14.6875C14.5259 20.8219 14.3709 20.7577 14.2566 20.6434C14.1423 20.5291 14.0781 20.3741 14.0781 20.2125V17.2875C14.0781 17.2075 14.0939 17.1282 14.1245 17.0543C14.1551 16.9804 14.2 16.9132 14.2566 16.8566C14.3132 16.8 14.3804 16.7551 14.4543 16.7245C14.5282 16.6939 14.6075 16.6781 14.6875 16.6781H16.2719V15.0938C16.272 13.9625 16.7215 12.8776 17.5215 12.0778ZM20.5375 12.0469C19.7294 12.0469 18.9544 12.3679 18.383 12.9393C17.8116 13.5107 17.4906 14.2857 17.4906 15.0938V17.2875C17.4906 17.4491 17.4264 17.6041 17.3121 17.7184C17.1979 17.8327 17.0429 17.8969 16.8812 17.8969H15.2969V19.6031H16.8812C17.0429 19.6031 17.1979 19.6673 17.3121 19.7816C17.4264 19.8959 17.4906 20.0509 17.4906 20.2125V25.4531H19.1969V20.2125C19.1969 20.0509 19.2611 19.8959 19.3754 19.7816C19.4896 19.6673 19.6446 19.6031 19.8063 19.6031H21.5239L21.9504 17.8969H19.8063C19.6446 17.8969 19.4896 17.8327 19.3754 17.7184C19.2611 17.6041 19.1969 17.4491 19.1969 17.2875V15.0938C19.1969 14.7382 19.3381 14.3972 19.5895 14.1458C19.841 13.8944 20.1819 13.7531 20.5375 13.7531H22.1219V12.0469H20.5375Z" fill="#F8F8F8"/>
</svg>
