<svg width="39" height="39" viewBox="0 0 39 39" fill="none" xmlns="http://www.w3.org/2000/svg">
<path d="M39 19.5C39 30.2696 30.2696 39 19.5 39C8.73045 39 0 30.2696 0 19.5C0 8.73045 8.73045 0 19.5 0C30.2696 0 39 8.73045 39 19.5Z" fill="#1DBAA4"/>
<path d="M24.0887 14.4362C23.8959 14.4362 23.7074 14.4934 23.5471 14.6006C23.3867 14.7077 23.2618 14.86 23.188 15.0381C23.1142 15.2163 23.0949 15.4123 23.1325 15.6015C23.1701 15.7906 23.263 15.9643 23.3993 16.1007C23.5357 16.237 23.7094 16.3299 23.8985 16.3675C24.0877 16.4051 24.2837 16.3858 24.4619 16.312C24.64 16.2382 24.7923 16.1133 24.8994 15.9529C25.0066 15.7926 25.0638 15.6041 25.0638 15.4112C25.0638 15.1527 24.961 14.9047 24.7782 14.7218C24.5953 14.539 24.3473 14.4362 24.0887 14.4362ZM27.8263 16.4025C27.8104 15.7284 27.6842 15.0614 27.4525 14.4281C27.2459 13.8863 26.9244 13.3957 26.51 12.99C26.1077 12.5735 25.6159 12.254 25.0719 12.0556C24.4403 11.8169 23.7726 11.6877 23.0975 11.6737C22.2363 11.625 21.96 11.625 19.75 11.625C17.54 11.625 17.2638 11.625 16.4025 11.6737C15.7274 11.6877 15.0597 11.8169 14.4281 12.0556C13.8851 12.256 13.3938 12.5753 12.99 12.99C12.5735 13.3923 12.254 13.8841 12.0556 14.4281C11.8169 15.0597 11.6877 15.7274 11.6737 16.4025C11.625 17.2638 11.625 17.54 11.625 19.75C11.625 21.96 11.625 22.2363 11.6737 23.0975C11.6877 23.7726 11.8169 24.4403 12.0556 25.0719C12.254 25.6159 12.5735 26.1077 12.99 26.51C13.3938 26.9247 13.8851 27.244 14.4281 27.4444C15.0597 27.6831 15.7274 27.8123 16.4025 27.8263C17.2638 27.875 17.54 27.875 19.75 27.875C21.96 27.875 22.2363 27.875 23.0975 27.8263C23.7726 27.8123 24.4403 27.6831 25.0719 27.4444C25.6159 27.246 26.1077 26.9265 26.51 26.51C26.9262 26.1058 27.248 25.6148 27.4525 25.0719C27.6842 24.4386 27.8104 23.7716 27.8263 23.0975C27.8263 22.2363 27.875 21.96 27.875 19.75C27.875 17.54 27.875 17.2638 27.8263 16.4025ZM26.3637 23C26.3578 23.5158 26.2644 24.0268 26.0875 24.5113C25.9578 24.8648 25.7494 25.1843 25.4781 25.4456C25.2146 25.7142 24.8957 25.9221 24.5437 26.055C24.0593 26.2319 23.5483 26.3253 23.0325 26.3313C22.22 26.3719 21.9194 26.38 19.7825 26.38C17.6456 26.38 17.345 26.38 16.5325 26.3313C15.997 26.3413 15.4637 26.2588 14.9562 26.0875C14.6197 25.9478 14.3155 25.7404 14.0625 25.4781C13.7928 25.2171 13.5871 24.8973 13.4613 24.5437C13.2629 24.0523 13.1529 23.5297 13.1362 23C13.1362 22.1875 13.0875 21.8869 13.0875 19.75C13.0875 17.6131 13.0875 17.3125 13.1362 16.5C13.1399 15.9727 13.2361 15.4502 13.4206 14.9562C13.5637 14.6133 13.7832 14.3076 14.0625 14.0625C14.3093 13.7831 14.6144 13.5613 14.9562 13.4125C15.4515 13.2338 15.9735 13.1404 16.5 13.1362C17.3125 13.1362 17.6131 13.0875 19.75 13.0875C21.8869 13.0875 22.1875 13.0875 23 13.1362C23.5158 13.1422 24.0268 13.2356 24.5113 13.4125C24.8805 13.5495 25.2119 13.7723 25.4781 14.0625C25.7444 14.3121 25.9524 14.6172 26.0875 14.9562C26.2681 15.451 26.3615 15.9733 26.3637 16.5C26.4044 17.3125 26.4125 17.6131 26.4125 19.75C26.4125 21.8869 26.4044 22.1875 26.3637 23ZM19.75 15.5819C18.926 15.5835 18.1209 15.8293 17.4365 16.2883C16.7522 16.7473 16.2192 17.3988 15.905 18.1605C15.5907 18.9223 15.5093 19.7601 15.6711 20.5681C15.8328 21.3761 16.2304 22.1181 16.8137 22.7002C17.3969 23.2823 18.1396 23.6784 18.9479 23.8386C19.7563 23.9988 20.5939 23.9158 21.3551 23.6001C22.1162 23.2843 22.7667 22.7501 23.2244 22.0648C23.682 21.3796 23.9262 20.574 23.9262 19.75C23.9273 19.2016 23.82 18.6585 23.6104 18.1518C23.4008 17.6451 23.0931 17.1848 22.705 16.7974C22.3168 16.41 21.856 16.1032 21.3488 15.8946C20.8417 15.686 20.2983 15.5797 19.75 15.5819ZM19.75 22.4556C19.2149 22.4556 18.6918 22.2969 18.2468 21.9996C17.8019 21.7023 17.4551 21.2798 17.2503 20.7854C17.0455 20.291 16.992 19.747 17.0964 19.2222C17.2008 18.6973 17.4584 18.2152 17.8368 17.8368C18.2152 17.4584 18.6973 17.2008 19.2222 17.0964C19.747 16.992 20.291 17.0455 20.7854 17.2503C21.2798 17.4551 21.7023 17.8019 21.9996 18.2468C22.2969 18.6918 22.4556 19.2149 22.4556 19.75C22.4556 20.1053 22.3856 20.4571 22.2497 20.7854C22.1137 21.1137 21.9144 21.4119 21.6632 21.6632C21.4119 21.9144 21.1137 22.1137 20.7854 22.2497C20.4571 22.3856 20.1053 22.4556 19.75 22.4556Z" fill="#F8F8F8"/>
</svg>
