<svg width="39" height="39" viewBox="0 0 39 39" fill="none" xmlns="http://www.w3.org/2000/svg">
<path d="M39 19.5C39 30.2696 30.2696 39 19.5 39C8.73045 39 0 30.2696 0 19.5C0 8.73045 8.73045 0 19.5 0C30.2696 0 39 8.73045 39 19.5Z" fill="#1DBAA4"/>
<path fill-rule="evenodd" clip-rule="evenodd" d="M13.8125 9.14062C13.2199 9.14062 12.6516 9.37603 12.2326 9.79506C11.8135 10.2141 11.5781 10.7824 11.5781 11.375C11.5781 11.9676 11.8135 12.5359 12.2326 12.9549C12.6516 13.374 13.2199 13.6094 13.8125 13.6094C14.4051 13.6094 14.9734 13.374 15.3924 12.9549C15.8115 12.5359 16.0469 11.9676 16.0469 11.375C16.0469 10.7824 15.8115 10.2141 15.3924 9.79506C14.9734 9.37603 14.4051 9.14062 13.8125 9.14062ZM12.7969 11.375C12.7969 11.1056 12.9039 10.8473 13.0943 10.6568C13.2848 10.4664 13.5431 10.3594 13.8125 10.3594C14.0819 10.3594 14.3402 10.4664 14.5307 10.6568C14.7211 10.8473 14.8281 11.1056 14.8281 11.375C14.8281 11.6444 14.7211 11.9027 14.5307 12.0932C14.3402 12.2836 14.0819 12.3906 13.8125 12.3906C13.5431 12.3906 13.2848 12.2836 13.0943 12.0932C12.9039 11.9027 12.7969 11.6444 12.7969 11.375ZM11.5781 14.625C11.5781 14.4634 11.6423 14.3084 11.7566 14.1941C11.8709 14.0798 12.0259 14.0156 12.1875 14.0156H15.4375C15.5991 14.0156 15.7541 14.0798 15.8684 14.1941C15.9827 14.3084 16.0469 14.4634 16.0469 14.625V25.1875C16.0469 25.3491 15.9827 25.5041 15.8684 25.6184C15.7541 25.7327 15.5991 25.7969 15.4375 25.7969H12.1875C12.0259 25.7969 11.8709 25.7327 11.7566 25.6184C11.6423 25.5041 11.5781 25.3491 11.5781 25.1875V14.625ZM12.7969 15.2344V24.5781H14.8281V15.2344H12.7969ZM17.2656 14.625C17.2656 14.4634 17.3298 14.3084 17.4441 14.1941C17.5584 14.0798 17.7134 14.0156 17.875 14.0156H21.125C21.2866 14.0156 21.4416 14.0798 21.5559 14.1941C21.6702 14.3084 21.7344 14.4634 21.7344 14.625V14.9776L22.0878 14.8257C22.6972 14.5653 23.3437 14.4021 24.0037 14.3422C26.2584 14.1375 28.2344 15.9088 28.2344 18.1838V25.1875C28.2344 25.3491 28.1702 25.5041 28.0559 25.6184C27.9416 25.7327 27.7866 25.7969 27.625 25.7969H24.375C24.2134 25.7969 24.0584 25.7327 23.9441 25.6184C23.8298 25.5041 23.7656 25.3491 23.7656 25.1875V19.5C23.7656 19.2306 23.6586 18.9723 23.4682 18.7818C23.2777 18.5914 23.0194 18.4844 22.75 18.4844C22.4806 18.4844 22.2223 18.5914 22.0318 18.7818C21.8414 18.9723 21.7344 19.2306 21.7344 19.5V25.1875C21.7344 25.3491 21.6702 25.5041 21.5559 25.6184C21.4416 25.7327 21.2866 25.7969 21.125 25.7969H17.875C17.7134 25.7969 17.5584 25.7327 17.4441 25.6184C17.3298 25.5041 17.2656 25.3491 17.2656 25.1875V14.625ZM18.4844 15.2344V24.5781H20.5156V19.5C20.5156 18.9074 20.751 18.3391 21.1701 17.9201C21.5891 17.501 22.1574 17.2656 22.75 17.2656C23.3426 17.2656 23.9109 17.501 24.3299 17.9201C24.749 18.3391 24.9844 18.9074 24.9844 19.5V24.5781H27.0156V18.1838C27.0156 16.6368 25.6661 15.4148 24.115 15.5561C23.5821 15.6046 23.0602 15.7362 22.568 15.9461L21.3655 16.4621C21.2727 16.5019 21.1716 16.5181 21.071 16.5091C20.9705 16.5002 20.8737 16.4664 20.7895 16.4108C20.7052 16.3552 20.6361 16.2796 20.5883 16.1907C20.5405 16.1018 20.5155 16.0024 20.5156 15.9014V15.2344H18.4844Z" fill="#F8F8F8"/>
</svg>
