<svg width="105" height="104" viewBox="0 0 105 104" fill="none" xmlns="http://www.w3.org/2000/svg">
<mask id="mask0_31_55" style="mask-type:luminance" maskUnits="userSpaceOnUse" x="0" y="0" width="105" height="104">
<path d="M0 0H105V104H0V0Z" fill="white"/>
</mask>
<g mask="url(#mask0_31_55)">
<path fill-rule="evenodd" clip-rule="evenodd" d="M105 51.9993C105 80.7185 81.4957 104 52.5 104C23.5057 104 0 80.7185 0 51.9993C0 23.2815 23.5071 0 52.5 0C81.4957 0 105 23.2829 105 51.9993Z" fill="#9B7D53"/>
</g>
<path d="M52.5674 55.5503V45.1943" stroke="#FEFEFE" stroke-width="1.5" stroke-linecap="round" stroke-linejoin="round"/>
<path fill-rule="evenodd" clip-rule="evenodd" d="M52.5674 45.193C52.5674 45.193 50.664 38.0228 58.1483 38.5598C58.1483 38.5598 60.66 46.4839 52.5674 45.193Z" fill="#FEFEFE"/>
<path fill-rule="evenodd" clip-rule="evenodd" d="M52.5674 45.193C52.5674 45.193 50.664 38.0228 58.1483 38.5598C58.1483 38.5598 60.66 46.4839 52.5674 45.193Z" stroke="#FEFEFE" stroke-linejoin="round"/>
<path fill-rule="evenodd" clip-rule="evenodd" d="M51.9082 48.1279C51.9082 48.1279 52.3651 43.399 44.6001 43.7603C44.6001 43.7603 45.6915 51.6966 51.9082 48.1279Z" fill="#FEFEFE"/>
<path fill-rule="evenodd" clip-rule="evenodd" d="M51.9082 48.1279C51.9082 48.1279 52.3651 43.399 44.6001 43.7603C44.6001 43.7603 45.6915 51.6966 51.9082 48.1279Z" stroke="#FEFEFE" stroke-linejoin="round"/>
<path fill-rule="evenodd" clip-rule="evenodd" d="M57.866 78.2799L70.8072 52.5597C70.8072 52.5597 75.8761 42.7939 70.8072 33.6962C70.8072 33.6962 65.8113 22.2415 52.4998 22.3628C39.1911 22.2415 34.1938 33.6962 34.1938 33.6962C29.1249 42.7939 34.1938 52.5597 34.1938 52.5597C34.1938 52.5597 44.977 72.849 47.135 78.2812C47.135 78.2812 48.9531 83.2895 52.4998 83.4572C56.0479 83.6248 57.866 78.2799 57.866 78.2799Z" stroke="#FEFEFE" stroke-width="1.5"/>
<path fill-rule="evenodd" clip-rule="evenodd" d="M64.1693 44.5579C64.1859 46.0864 63.8963 47.603 63.3171 49.0198C62.738 50.4367 61.8809 51.7258 60.7954 52.8124C59.7099 53.899 58.4176 54.7616 56.9933 55.3502C55.569 55.9388 54.041 56.2418 52.4977 56.2417C50.9544 56.2415 49.4264 55.9381 48.0023 55.3492C46.5781 54.7602 45.286 53.8973 44.2008 52.8104C43.1156 51.7236 42.2588 50.4343 41.68 49.0173C41.1012 47.6003 40.8119 46.0836 40.8288 44.5551C40.8626 41.5112 42.1071 38.6034 44.2924 36.4629C46.4776 34.3224 49.4271 33.122 52.5004 33.1224C55.5738 33.1227 58.523 34.3238 60.7077 36.4648C62.8924 38.6058 64.1363 41.514 64.1693 44.5579Z" stroke="#FEFEFE" stroke-width="1.5"/>
</svg>
