<svg width="105" height="105" viewBox="0 0 105 105" fill="none" xmlns="http://www.w3.org/2000/svg">
<path fill-rule="evenodd" clip-rule="evenodd" d="M105 52.258C105 80.9714 81.4941 104.25 52.5 104.25C23.5046 104.25 0 80.9714 0 52.258C0 23.5445 23.5059 0.266113 52.5 0.266113C81.4928 0.266113 105 23.5445 105 52.258Z" fill="#00B099"/>
<path d="M44.0818 33.2798H65.8683M61.6523 33.2798V44.6495C61.3901 48.9129 64.0571 51.9112 64.0571 51.9112L74.1765 67.775C74.1765 67.775 76.9152 71.7801 75.0881 75.0103C73.2622 78.2392 69.7396 77.8517 69.7396 77.8517H40.2983C40.2983 77.8517 36.7757 78.2392 34.9485 75.0103C33.1227 71.7801 35.8641 67.775 35.8641 67.775L45.9795 51.9112C45.9795 51.9112 48.6464 48.9129 48.3869 44.6495V33.2798" stroke="#FEFEFE" stroke-width="1.5" stroke-linecap="round" stroke-linejoin="round"/>
<path d="M43.6445 55.574C43.6445 55.574 47.5864 53.6261 53.1384 54.4999C58.6932 55.3723 60.1265 59.0019 66.7791 56.9947" stroke="#FEFEFE" stroke-width="1.5"/>
<path fill-rule="evenodd" clip-rule="evenodd" d="M60.8591 26.4666C60.8591 27.2343 60.5511 27.9706 60.0029 28.5135C59.4547 29.0564 58.7112 29.3614 57.936 29.3614C57.1607 29.3614 56.4172 29.0564 55.869 28.5135C55.3208 27.9706 55.0129 27.2343 55.0129 26.4666C55.0129 25.6988 55.3208 24.9625 55.869 24.4196C56.4172 23.8768 57.1607 23.5718 57.936 23.5718C58.7112 23.5718 59.4547 23.8768 60.0029 24.4196C60.5511 24.9625 60.8591 25.6988 60.8591 26.4666ZM54.0174 22.3876C54.0174 23.0505 53.7515 23.6862 53.2782 24.155C52.8049 24.6237 52.163 24.887 51.4936 24.887C50.8242 24.887 50.1823 24.6237 49.7089 24.155C49.2356 23.6862 48.9697 23.0505 48.9697 22.3876C48.9697 21.7247 49.2356 21.089 49.7089 20.6203C50.1823 20.1515 50.8242 19.8882 51.4936 19.8882C52.163 19.8882 52.8049 20.1515 53.2782 20.6203C53.7515 21.089 54.0174 21.7247 54.0174 22.3876ZM59.6161 18.8161C59.6161 19.3617 59.3972 19.885 59.0077 20.2708C58.6181 20.6566 58.0897 20.8733 57.5387 20.8733C56.9878 20.8733 56.4594 20.6566 56.0698 20.2708C55.6802 19.885 55.4614 19.3617 55.4614 18.8161C55.4614 18.2704 55.6802 17.7472 56.0698 17.3613C56.4594 16.9755 56.9878 16.7588 57.5387 16.7588C58.0897 16.7588 58.6181 16.9755 59.0077 17.3613C59.3972 17.7472 59.6161 18.2704 59.6161 18.8161Z" stroke="#FEFEFE"/>
<path fill-rule="evenodd" clip-rule="evenodd" d="M44.4995 72.707C44.4991 75.6675 43.3114 78.5066 41.1976 80.5999C39.0838 82.6933 36.217 83.8695 33.2276 83.8698C30.2379 83.8698 27.3707 82.6937 25.2567 80.6001C23.1427 78.5066 21.9551 75.6671 21.9551 72.7064C21.9551 69.7457 23.1427 66.9062 25.2567 64.8127C27.3707 62.7191 30.2379 61.543 33.2276 61.543C36.2172 61.5433 39.0843 62.7197 41.1981 64.8133C43.3119 66.907 44.4995 69.7464 44.4995 72.707Z" fill="#FEFEFE"/>
<path d="M28.5962 77.8522L37.8559 68.6821M28.5962 68.6834L37.8559 77.8522" stroke="#00B099" stroke-width="1.5" stroke-linecap="round" stroke-linejoin="round"/>
</svg>
