<svg width="48" height="47" viewBox="0 0 48 47" fill="none" xmlns="http://www.w3.org/2000/svg">
<ellipse cx="24" cy="23.5" rx="24" ry="23.5" fill="#734E0A"/>
<path d="M19.6834 32.6006C19.4709 32.6162 19.2584 32.6247 19.0417 32.6247V34.0413C19.2924 34.0413 19.5417 34.0314 19.7882 34.013L19.6834 32.6006ZM19.0417 32.6247C16.7873 32.6247 14.6253 31.7291 13.0313 30.1351C11.4372 28.541 10.5417 26.379 10.5417 24.1247H9.125C9.125 26.7547 10.1698 29.2771 12.0295 31.1368C13.8893 32.9966 16.4116 34.0413 19.0417 34.0413V32.6247ZM10.5417 24.1247C10.5417 21.8703 11.4372 19.7083 13.0313 18.1143C14.6253 16.5202 16.7873 15.6247 19.0417 15.6247V14.208C16.4116 14.208 13.8893 15.2528 12.0295 17.1125C10.1698 18.9723 9.125 21.4946 9.125 24.1247H10.5417ZM19.0417 15.6247C20.6932 15.6247 22.3089 16.1056 23.6916 17.0088C25.0743 17.912 26.164 19.1982 26.8277 20.7105L28.1253 20.1396C27.351 18.3755 26.0795 16.8751 24.4664 15.8217C22.8533 14.7684 20.9683 14.2076 19.0417 14.208V15.6247ZM29.6667 22.708C30.9817 22.708 32.2429 23.2304 33.1727 24.1603C34.1026 25.0901 34.625 26.3513 34.625 27.6663H36.0417C36.0417 25.9756 35.37 24.3541 34.1745 23.1585C32.9789 21.963 31.3574 21.2913 29.6667 21.2913V22.708ZM34.625 27.6663C34.625 28.9814 34.1026 30.2425 33.1727 31.1724C32.2429 32.1023 30.9817 32.6247 29.6667 32.6247V34.0413C31.3574 34.0413 32.9789 33.3697 34.1745 32.1741C35.37 30.9786 36.0417 29.3571 36.0417 27.6663H34.625ZM29.6667 32.6247H19.7642V34.0413H29.6667V32.6247ZM19.7642 32.6247C20.1467 32.6247 20.4583 32.9363 20.4583 33.3188H19.0417C19.0417 33.7183 19.3647 34.0413 19.7642 34.0413V32.6247ZM26.8277 20.7105C27.3022 21.7886 28.3421 22.708 29.6667 22.708V21.2913C29.0433 21.2913 28.4342 20.8451 28.1253 20.1396L26.8277 20.7105ZM19.7882 34.013C19.6928 34.0202 19.5968 34.0076 19.5065 33.976C19.4161 33.9444 19.3333 33.8944 19.2632 33.8292C19.193 33.764 19.1372 33.685 19.099 33.5972C19.0609 33.5093 19.0414 33.4146 19.0417 33.3188H20.4583C20.458 33.2197 20.4373 33.1218 20.3975 33.031C20.3577 32.9403 20.2997 32.8587 20.227 32.7913C20.1543 32.7239 20.0685 32.6722 19.975 32.6394C19.8815 32.6066 19.7823 32.5934 19.6834 32.6006L19.7882 34.013Z" fill="white"/>
<path d="M34.676 24.1758C35.7521 23.1016 36.454 21.7096 36.6777 20.2056C36.9015 18.7016 36.6353 17.1656 35.9184 15.8247C35.2015 14.4837 34.0721 13.4091 32.6972 12.7598C31.3223 12.1105 29.775 11.9209 28.284 12.2191C27.2952 12.4159 26.3599 12.8216 25.5405 13.4089C24.7211 13.9962 24.0365 14.7516 23.5325 15.6248" stroke="white"/>
</svg>
