<svg width="105" height="104" viewBox="0 0 105 104" fill="none" xmlns="http://www.w3.org/2000/svg">
<mask id="mask0_31_70" style="mask-type:luminance" maskUnits="userSpaceOnUse" x="0" y="0" width="105" height="104">
<path d="M0 0H105V104H0V0Z" fill="white"/>
</mask>
<g mask="url(#mask0_31_70)">
<path fill-rule="evenodd" clip-rule="evenodd" d="M105 52C105 80.7183 81.4948 104 52.5007 104C23.5052 104 -0.00134277 80.7183 -0.00134277 52C1.52019e-05 23.2817 23.5066 0 52.4993 0C81.4948 0 105 23.2817 105 52Z" fill="#724F1F"/>
</g>
<path d="M55.7601 58.6742C55.7601 58.6742 60.8892 59.6097 60.35 65.8908C59.8069 72.172 53.8413 73.5071 53.8413 73.5071C53.8413 73.5071 34.9831 78.3182 32.6894 61.212C30.3972 44.1086 53.8711 42.2376 57.5159 47.7156C57.5159 47.7156 59.2691 37.1592 70.1994 41.568C81.1257 45.9782 79.5084 58.0969 69.6562 57.9178L66.2857 68.6987C66.2857 68.6987 68.8496 69.2319 68.984 70.8369C69.1198 72.4393 68.1761 72.9739 66.1513 73.1075H55.1381" stroke="#FEFEFE" stroke-width="1.5" stroke-linecap="round" stroke-linejoin="round"/>
<path d="M59.096 43.8667C59.096 43.8667 50.2366 37.1432 50.1022 29.8851C49.9691 22.6284 58.2202 28.669 63.0206 40.8237" stroke="#FEFEFE" stroke-width="1.5" stroke-linecap="round" stroke-linejoin="round"/>
<path d="M58.2463 31.9472C58.2463 31.9472 57.2957 23.1563 61.4267 24.0811C65.5563 25.0032 67.8485 36.4683 66.5028 40.5658" stroke="#FEFEFE" stroke-width="1.5" stroke-linecap="round" stroke-linejoin="round"/>
<path fill-rule="evenodd" clip-rule="evenodd" d="M72.634 47.7944C72.6351 48.2408 72.456 48.6693 72.1362 48.9858C71.8164 49.3023 71.3819 49.4809 70.9284 49.4823C70.4751 49.4806 70.041 49.3018 69.7214 48.9854C69.4019 48.6689 69.223 48.2406 69.2241 47.7944C69.2241 46.8616 69.9873 46.1065 70.9284 46.1065C71.8695 46.1065 72.634 46.8616 72.634 47.7944Z" fill="#FEFEFE"/>
<path d="M33.0966 54.967C33.0966 54.967 26.6435 55.3586 27.3089 61.871C27.8521 67.2006 34.058 66.2277 34.058 66.2277" stroke="#FEFEFE" stroke-width="1.5" stroke-linecap="round" stroke-linejoin="round"/>
</svg>
